<svg width="112" height="38" viewBox="0 0 112 38" fill="none" xmlns="http://www.w3.org/2000/svg">
<g clip-path="url(#clip0)">
<path d="M94.6169 8.05082C95.0359 8.05082 95.4549 8.13966 95.8432 8.30748L105.081 12.345C106.175 12.8189 106.87 13.8653 106.87 15.0202V28.6235C106.87 29.4823 106.144 30.1141 105.327 30.1141C105.112 30.1141 104.897 30.0746 104.693 29.9759L95.833 26.1062C95.4447 25.9384 95.0257 25.8495 94.6067 25.8495C94.1877 25.8495 93.7789 25.9285 93.3906 26.0963L84.4284 29.9759C84.224 30.0647 84.0094 30.1042 83.7948 30.1042C82.9874 30.1042 82.2517 29.4724 82.2517 28.6136V15.0301C82.2517 13.8751 82.9568 12.8189 84.0502 12.345L93.3906 8.29761C93.7891 8.13966 94.1979 8.05082 94.6169 8.05082ZM94.6169 3.09521C93.4621 3.09521 92.3482 3.32226 91.3059 3.77636L81.9655 7.82377C79.0326 9.09722 77.1318 11.9205 77.1318 15.0301V28.6333C77.1318 32.1872 80.1261 35.0796 83.805 35.0796C84.7451 35.0796 85.6649 34.892 86.5335 34.5169L94.6067 31.0223L102.578 34.507C103.446 34.892 104.376 35.0796 105.327 35.0796C109.006 35.0796 112 32.1872 112 28.6333V15.0202C112 11.9205 110.109 9.09722 107.197 7.82377L97.9586 3.78623C96.8958 3.33214 95.7819 3.09521 94.6169 3.09521Z" fill="#2BAE66"/>
<path d="M1.74635 32.7989C1.61602 32.7862 1.51175 32.7225 1.43355 32.6333C1.34232 32.5314 1.30322 32.4295 1.30322 32.2894V27.5764C1.30322 27.4491 1.34232 27.3344 1.42052 27.2325C1.49872 27.1306 1.60298 27.0797 1.73332 27.0669C2.02005 27.0287 2.34587 27.016 2.69777 27.016C4.09232 27.016 4.79611 27.4745 4.79611 28.3917C4.79611 28.7101 4.69184 28.9776 4.47028 29.2069C4.26175 29.4362 3.96198 29.589 3.59706 29.6654C3.59706 29.6654 3.58402 29.6654 3.58402 29.6782C3.58402 29.6909 3.58402 29.6909 3.59706 29.6909C4.05322 29.7673 4.40511 29.9329 4.66577 30.1877C4.92644 30.4552 5.04374 30.7609 5.04374 31.1303C5.04374 32.2639 4.28781 32.8371 2.76293 32.8371C2.39801 32.8499 2.05914 32.8371 1.74635 32.7989ZM1.92881 27.6656V29.4107C1.92881 29.4489 1.95488 29.4744 1.99398 29.4744H2.45014C3.61009 29.4744 4.18355 29.1432 4.18355 28.4808C4.18355 28.1624 4.06625 27.9204 3.83165 27.7675C3.59706 27.6147 3.21909 27.5382 2.69777 27.5382C2.46317 27.5382 2.24161 27.5637 1.99398 27.6019C1.95488 27.6019 1.92881 27.6274 1.92881 27.6656ZM1.92881 30.0476V32.213C1.92881 32.2639 1.94185 32.2894 1.98095 32.2894C2.24161 32.3276 2.50227 32.3531 2.76293 32.3531C3.87075 32.3531 4.41814 31.9327 4.41814 31.0921C4.41814 30.3405 3.76649 29.9711 2.45014 29.9711H1.99398C1.95488 29.9711 1.92881 29.9966 1.92881 30.0476Z" fill="#878F95"/>
<path d="M8.57545 32.7736C8.45815 32.7736 8.35389 32.7353 8.26266 32.6462C8.17142 32.557 8.13232 32.4551 8.13232 32.3405V27.5511C8.13232 27.4365 8.17142 27.3346 8.26266 27.2454C8.35389 27.1563 8.45815 27.118 8.57545 27.118H11.2472C11.3254 27.118 11.3906 27.1435 11.4427 27.1945C11.4949 27.2454 11.5209 27.3091 11.5209 27.3728C11.5209 27.4365 11.4949 27.5002 11.4427 27.5511C11.3906 27.6021 11.3254 27.6275 11.2472 27.6275H8.83611C8.78398 27.6275 8.77095 27.653 8.77095 27.6912V29.4108C8.77095 29.449 8.79701 29.4745 8.83611 29.4745H11.1169C11.1951 29.4745 11.2472 29.5 11.2994 29.5509C11.3515 29.6019 11.3645 29.6528 11.3645 29.7293C11.3645 29.793 11.3385 29.8566 11.2994 29.9076C11.2472 29.9585 11.1951 29.984 11.1169 29.984H8.83611C8.78398 29.984 8.77095 30.0095 8.77095 30.0477V32.2004C8.77095 32.2386 8.79701 32.2641 8.83611 32.2641H11.2472C11.3254 32.2641 11.3906 32.2895 11.4427 32.3405C11.4949 32.3914 11.5209 32.4551 11.5209 32.5188C11.5209 32.5825 11.4949 32.6462 11.4427 32.6971C11.3906 32.7481 11.3254 32.7736 11.2472 32.7736H8.57545Z" fill="#878F95"/>
<path d="M15.405 32.6846C15.3398 32.7483 15.2746 32.7738 15.1834 32.7738C15.0922 32.7738 15.014 32.7483 14.9618 32.6846C14.8967 32.6209 14.8706 32.5445 14.8706 32.4681V27.4112C14.8706 27.3347 14.8967 27.2583 14.9618 27.1946C15.027 27.1309 15.0922 27.1055 15.1834 27.1055C15.2746 27.1055 15.3528 27.1309 15.405 27.1946C15.4701 27.2583 15.4962 27.3347 15.4962 27.4112V29.411C15.4962 29.4492 15.5223 29.4747 15.5614 29.4747H18.181C18.2201 29.4747 18.2462 29.4492 18.2462 29.411V27.4112C18.2462 27.3347 18.2723 27.2583 18.3374 27.1946C18.4026 27.1309 18.4677 27.1055 18.559 27.1055C18.6502 27.1055 18.7284 27.1309 18.7805 27.1946C18.8457 27.2583 18.8718 27.3347 18.8718 27.4112V32.4681C18.8718 32.5572 18.8457 32.6209 18.7805 32.6846C18.7154 32.7483 18.6502 32.7738 18.559 32.7738C18.4677 32.7738 18.3895 32.7483 18.3374 32.6846C18.2723 32.6209 18.2462 32.5445 18.2462 32.4681V30.0479C18.2462 29.9969 18.2201 29.9842 18.181 29.9842H15.5614C15.5223 29.9842 15.4962 30.0097 15.4962 30.0479V32.4681C15.4962 32.5445 15.4571 32.6209 15.405 32.6846Z" fill="#878F95"/>
<path d="M22.8469 32.6846C22.7817 32.7483 22.7165 32.7738 22.6253 32.7738C22.5341 32.7738 22.4559 32.7483 22.4037 32.6846C22.3386 32.6209 22.3125 32.5445 22.3125 32.4681V27.4112C22.3125 27.3347 22.3386 27.2583 22.4037 27.1946C22.4689 27.1309 22.5341 27.1055 22.6253 27.1055C22.7165 27.1055 22.7947 27.1309 22.8469 27.1946C22.912 27.2583 22.9381 27.3347 22.9381 27.4112V29.6148C22.9381 29.6148 22.9381 29.6275 22.9511 29.6275H22.9642L25.1146 27.373C25.2841 27.1946 25.5056 27.1055 25.7532 27.1055C25.8314 27.1055 25.8836 27.1437 25.9096 27.2074C25.9357 27.2711 25.9227 27.3347 25.8705 27.3857L23.5637 29.7804C23.5376 29.8059 23.5246 29.8441 23.5506 29.8696L25.9618 32.4935C26.0139 32.5445 26.0139 32.6082 25.9878 32.6719C25.9618 32.7356 25.9096 32.7738 25.8314 32.7738C25.5708 32.7738 25.3623 32.6846 25.1928 32.4935L22.9511 30.0097L22.9381 29.9969C22.9381 29.9969 22.9251 29.9969 22.9251 30.0097V32.4553C22.9381 32.5445 22.912 32.6209 22.8469 32.6846Z" fill="#878F95"/>
<path d="M29.572 32.6846C29.5068 32.7483 29.4416 32.7738 29.3504 32.7738C29.2592 32.7738 29.181 32.7483 29.1288 32.6846C29.0637 32.6209 29.0376 32.5445 29.0376 32.4681V27.4112C29.0376 27.3347 29.0637 27.2583 29.1288 27.1946C29.194 27.1309 29.2592 27.1055 29.3504 27.1055C29.4416 27.1055 29.5198 27.1309 29.572 27.1946C29.6371 27.2583 29.6632 27.3347 29.6632 27.4112V29.411C29.6632 29.4492 29.6893 29.4747 29.7284 29.4747H32.348C32.3871 29.4747 32.4132 29.4492 32.4132 29.411V27.4112C32.4132 27.3347 32.4392 27.2583 32.5044 27.1946C32.5696 27.1309 32.6347 27.1055 32.726 27.1055C32.8172 27.1055 32.8954 27.1309 32.9475 27.1946C33.0127 27.2583 33.0388 27.3347 33.0388 27.4112V32.4681C33.0388 32.5572 33.0127 32.6209 32.9475 32.6846C32.8824 32.7483 32.8172 32.7738 32.726 32.7738C32.6347 32.7738 32.5565 32.7483 32.5044 32.6846C32.4392 32.6209 32.4132 32.5445 32.4132 32.4681V30.0479C32.4132 29.9969 32.3871 29.9842 32.348 29.9842H29.7284C29.6893 29.9842 29.6632 30.0097 29.6632 30.0479V32.4681C29.6632 32.5445 29.6371 32.6209 29.572 32.6846Z" fill="#878F95"/>
<path d="M36.31 32.7734C36.2318 32.7734 36.1666 32.7352 36.1145 32.6715C36.0623 32.6078 36.0623 32.5441 36.0884 32.4677L37.9 27.4236C37.9391 27.3217 38.0043 27.2453 38.0825 27.1816C38.1737 27.1179 38.2649 27.0924 38.3692 27.0924C38.4735 27.0924 38.5777 27.1179 38.6559 27.1816C38.7472 27.2453 38.7993 27.3217 38.8384 27.4236L40.65 32.455C40.6761 32.5314 40.663 32.6078 40.6239 32.6715C40.5718 32.7352 40.5066 32.7734 40.4284 32.7734C40.3242 32.7734 40.2329 32.7479 40.1417 32.6842C40.0635 32.6206 39.9983 32.5441 39.9723 32.455L39.5552 31.1812C39.5422 31.143 39.5031 31.1175 39.464 31.1175H37.2614C37.2223 31.1175 37.1962 31.143 37.1702 31.1812L36.727 32.4677C36.701 32.5569 36.6358 32.6333 36.5576 32.6842C36.4924 32.7479 36.4012 32.7734 36.31 32.7734ZM38.3431 27.6656L37.3787 30.5571C37.3787 30.5698 37.3787 30.5825 37.3917 30.5953C37.4048 30.608 37.4178 30.6207 37.4308 30.6207H39.2946C39.3076 30.6207 39.3206 30.6207 39.3337 30.5953C39.3467 30.5825 39.3467 30.5698 39.3467 30.5571L38.3822 27.6656C38.3822 27.6656 38.3822 27.6529 38.3692 27.6529C38.3562 27.6656 38.3431 27.6656 38.3431 27.6656Z" fill="#878F95"/>
<path d="M43.6088 32.7734C43.5306 32.7734 43.4654 32.7352 43.4133 32.6715C43.3612 32.6078 43.3612 32.5441 43.3872 32.4677L45.1988 27.4236C45.2379 27.3217 45.3031 27.2453 45.3813 27.1816C45.4725 27.1179 45.5638 27.0924 45.668 27.0924C45.7723 27.0924 45.8766 27.1179 45.9548 27.1816C46.046 27.2453 46.0981 27.3217 46.1372 27.4236L47.9488 32.455C47.9749 32.5314 47.9619 32.6078 47.9228 32.6715C47.8706 32.7352 47.8055 32.7734 47.7273 32.7734C47.623 32.7734 47.5318 32.7479 47.4405 32.6842C47.3623 32.6206 47.2972 32.5441 47.2711 32.455L46.854 31.1812C46.841 31.143 46.8019 31.1175 46.7628 31.1175H44.5733C44.5342 31.1175 44.5081 31.143 44.482 31.1812L44.0389 32.4677C44.0128 32.5569 43.9477 32.6333 43.8695 32.6842C43.8043 32.7479 43.7131 32.7734 43.6088 32.7734ZM45.655 27.6656L44.6905 30.5571C44.6905 30.5698 44.6906 30.5825 44.7036 30.5953C44.7166 30.608 44.7296 30.6207 44.7427 30.6207H46.6064C46.6195 30.6207 46.6325 30.6207 46.6455 30.5953C46.6586 30.5825 46.6586 30.5698 46.6586 30.5571L45.6941 27.6656C45.6941 27.6656 45.6941 27.6529 45.6811 27.6529C45.668 27.6656 45.655 27.6656 45.655 27.6656Z" fill="#878F95"/>
<path d="M51.4548 32.6973C51.3896 32.7483 51.3244 32.7865 51.2332 32.7865C51.142 32.7865 51.0768 32.761 51.0116 32.6973C50.9465 32.6464 50.9204 32.5699 50.9204 32.4808V27.4239C50.9204 27.3347 50.9465 27.2583 51.0116 27.1946C51.0768 27.1309 51.155 27.1055 51.2462 27.1055C51.4678 27.1055 51.6242 27.1946 51.7415 27.3857L54.3872 31.7675C54.3872 31.7675 54.3872 31.7802 54.4003 31.7802C54.4003 31.7802 54.4133 31.7802 54.4133 31.7675V27.4112C54.4133 27.322 54.4394 27.2456 54.5045 27.1946C54.5697 27.1437 54.6349 27.1055 54.7261 27.1055C54.8043 27.1055 54.8825 27.1309 54.9477 27.1946C55.0128 27.2456 55.0389 27.322 55.0389 27.4112V32.4553C55.0389 32.5445 55.0128 32.6209 54.9477 32.6846C54.8825 32.7483 54.8043 32.7737 54.7131 32.7737C54.4915 32.7737 54.3351 32.6846 54.2178 32.4935L51.5721 28.1245C51.5721 28.1245 51.5721 28.1117 51.559 28.1117C51.559 28.1117 51.546 28.1117 51.546 28.1245V32.4808C51.546 32.5572 51.5199 32.6336 51.4548 32.6973Z" fill="#878F95"/>
<path d="M59.1705 32.672C59.1053 32.7484 59.0141 32.7866 58.9098 32.7866C58.8056 32.7866 58.7143 32.7484 58.6492 32.672C58.584 32.5956 58.5449 32.5191 58.5449 32.4172V32.0733C58.5449 31.9714 58.584 31.8823 58.6492 31.8186C58.7143 31.7549 58.8056 31.7167 58.9098 31.7167C59.0141 31.7167 59.1053 31.7549 59.1705 31.8186C59.2357 31.8823 59.2748 31.9714 59.2748 32.0733V32.4045C59.2748 32.5064 59.2487 32.5956 59.1705 32.672Z" fill="#878F95"/>
<path d="M63.5626 27.6917C63.4975 27.7554 63.4323 27.7809 63.3411 27.7809C63.2499 27.7809 63.1717 27.7554 63.1195 27.6917C63.0544 27.6281 63.0283 27.5644 63.0283 27.4752V27.2714C63.0283 27.195 63.0544 27.1186 63.1195 27.0549C63.1847 26.9912 63.2499 26.9657 63.3411 26.9657C63.4323 26.9657 63.5105 26.9912 63.5626 27.0549C63.6278 27.1186 63.6539 27.195 63.6539 27.2714V27.4752C63.6539 27.5516 63.6278 27.6281 63.5626 27.6917ZM63.5626 32.6849C63.4975 32.7486 63.4323 32.7741 63.3411 32.7741C63.2499 32.7741 63.1717 32.7486 63.1195 32.6849C63.0544 32.6212 63.0283 32.5448 63.0283 32.4684V29.0547C63.0283 28.9782 63.0544 28.9018 63.1195 28.8381C63.1847 28.7744 63.2499 28.749 63.3411 28.749C63.4323 28.749 63.5105 28.7744 63.5626 28.8381C63.6278 28.9018 63.6539 28.9782 63.6539 29.0547V32.4684C63.6539 32.5448 63.6278 32.6212 63.5626 32.6849Z" fill="#878F95"/>
<path d="M67.7721 32.6847C67.707 32.7483 67.6418 32.7738 67.5506 32.7738C67.4593 32.7738 67.3811 32.7483 67.329 32.6847C67.2639 32.621 67.2378 32.5445 67.2378 32.4681V29.0289C67.2378 28.9525 67.2639 28.8761 67.329 28.8251C67.3942 28.7742 67.4594 28.736 67.5376 28.736C67.6288 28.736 67.6939 28.7614 67.7461 28.8251C67.7982 28.8761 67.8373 28.9525 67.8373 29.0289V29.6276C67.8373 29.6276 67.8373 29.6403 67.8503 29.6403C67.8634 29.6403 67.8634 29.6403 67.8634 29.6276C68.0198 29.3728 68.2413 29.1563 68.5411 29.0035C68.8278 28.8506 69.1536 28.7614 69.5186 28.7487C69.5968 28.7487 69.6619 28.7614 69.7141 28.8124C69.7662 28.8633 69.7923 28.927 69.7923 29.0035C69.7923 29.0671 69.7662 29.1308 69.7141 29.1818C69.6619 29.2327 69.5968 29.2582 69.5316 29.2709C69.0103 29.2964 68.6063 29.4365 68.3195 29.7168C68.0328 29.997 67.8894 30.3791 67.8894 30.8759V32.4809C67.8634 32.5445 67.8373 32.621 67.7721 32.6847Z" fill="#878F95"/>
<path d="M6.8813 14.368L6.43817 13.9349C6.13841 13.642 5.65619 13.642 5.35642 13.9349L4.9133 14.368C4.61354 14.661 4.61354 15.1323 4.9133 15.4252L5.35642 15.8583C5.65619 16.1513 6.13841 16.1513 6.43817 15.8583L6.8813 15.4252C7.18106 15.1195 7.18106 14.6482 6.8813 14.368Z" fill="#0F1E27"/>
<path d="M10.0225 12.2412L9.07106 12.687C8.70614 12.8526 8.54974 13.2729 8.6931 13.6423C9.22746 14.9288 9.50116 16.0115 9.50116 16.8777C9.50116 17.7693 9.21443 18.4699 8.64097 18.9667C8.06751 19.4634 7.18126 19.7182 5.98221 19.7182C4.73103 19.7182 3.83174 19.4507 3.27132 18.9285C2.71089 18.4062 2.42416 17.6547 2.42416 16.6739C2.42416 15.9861 2.59359 15.0053 2.93246 13.7442C3.03672 13.3621 2.81516 12.9672 2.42416 12.8398L1.59004 12.5724C1.17298 12.445 0.742889 12.6743 0.625591 13.0819C0.20853 14.4703 0 15.744 0 16.9159C0 18.5973 0.495259 19.8965 1.49881 20.7882C2.50236 21.6925 4.00117 22.1384 5.98221 22.1384C6.82937 22.1384 7.61135 22.0237 8.32818 21.7944C9.045 21.5652 9.68362 21.234 10.218 20.8009C10.7654 20.3678 11.1824 19.8074 11.4952 19.1195C11.808 18.4317 11.9514 17.6547 11.9514 16.7885C11.9514 15.8842 11.8602 15.0944 11.6647 14.4066C11.5213 13.8971 11.3128 13.3111 11.0391 12.636C10.8957 12.2284 10.4135 12.0501 10.0225 12.2412Z" fill="#0F1E27"/>
<path d="M14.2709 18.075H15.2093C15.6264 18.075 15.9782 17.7438 15.9782 17.3235V7.43902C15.9782 7.03142 15.6394 6.6875 15.2093 6.6875H14.2709C13.8538 6.6875 13.502 7.01868 13.502 7.43902V17.3235C13.502 17.7311 13.8408 18.075 14.2709 18.075Z" fill="#0F1E27"/>
<path d="M38.3564 6.56016L37.9133 6.12707C37.6135 5.83411 37.1313 5.83411 36.8315 6.12707L36.3884 6.56016C36.0886 6.85312 36.0886 7.32442 36.3884 7.61738L36.8315 8.05047C37.1313 8.34343 37.6135 8.34343 37.9133 8.05047L38.3564 7.61738C38.6562 7.31168 38.6562 6.84038 38.3564 6.56016Z" fill="#0F1E27"/>
<path d="M69.2321 11.2857L68.3849 11.5149C67.9939 11.6168 67.7593 12.0117 67.8375 12.3938C68.007 13.1963 68.0982 13.7822 68.0982 14.1644C68.0982 14.6866 67.9679 15.056 67.7072 15.298C67.4465 15.54 67.0295 15.6674 66.456 15.6674H66.1563H59.1705H59.1575H58.9489C58.1669 15.6674 57.4632 15.9986 56.8376 16.6737C56.212 17.3488 55.6907 18.3296 55.2736 19.6416L55.026 19.7562C54.244 19.2722 53.7487 18.5971 53.5662 17.7182C54.8044 17.3361 55.7558 16.7756 56.4466 16.0113C57.1373 15.2471 57.4762 14.3682 57.4762 13.3619C57.4762 12.4957 57.2286 11.8079 56.7463 11.2857C56.2641 10.7634 55.6125 10.5087 54.8174 10.5087C53.7748 10.5087 52.9276 10.9672 52.289 11.8971C51.6504 12.8269 51.2985 14.0752 51.2333 15.6674H50.2167H43.231H43.2179H43.0224C42.5142 15.6674 42.1362 15.6165 41.8886 15.5273C41.6409 15.4381 41.4324 15.2598 41.2369 15.0051L41.9668 14.5338C42.1753 14.3937 42.3056 14.1644 42.3056 13.9096V12.9798C42.3056 12.6358 42.071 12.3429 41.7452 12.2665C41.4585 12.19 41.1587 12.1136 40.8459 12.0117C40.3376 11.8589 39.9466 11.7187 39.6599 11.6041C39.3732 11.4895 38.9952 11.3239 38.4999 11.1201C38.0438 10.929 37.7049 10.7889 37.4573 10.687C37.2227 10.5978 36.936 10.5087 36.5971 10.4195C36.2713 10.3303 35.9715 10.2921 35.7109 10.2921C34.8246 10.2921 34.1339 10.5723 33.6516 11.1328C33.3258 11.5149 32.9478 12.6868 32.7263 13.4128C32.635 13.7313 32.8436 14.0625 33.1824 14.1262L33.9775 14.2663C34.2512 14.3172 34.5248 14.1644 34.6291 13.9096C34.8246 13.3746 35.2286 12.5722 35.8282 12.6868C35.9715 12.7123 36.1279 12.7123 36.3104 12.7505C36.4928 12.7887 36.6362 12.8397 36.7535 12.8779C36.8708 12.9161 37.0533 12.9925 37.3009 13.0944C38.0829 13.4256 38.7736 13.6421 39.3862 13.7695L37.6137 14.814C37.0533 15.1452 36.4928 15.3745 35.9715 15.4891C35.4372 15.6165 34.8116 15.6674 34.0948 15.6674H31.8791H24.8934H24.2808C24.0592 12.5976 22.9254 11.0691 20.8792 11.0691C20.3578 11.0691 19.8886 11.1965 19.4585 11.4385C19.0415 11.6805 18.7026 12.0117 18.455 12.4193C18.2074 12.8269 18.0119 13.26 17.8815 13.7313C17.7512 14.2026 17.686 14.6739 17.686 15.1707C17.686 16.1132 17.9337 16.8393 18.442 17.3361C18.9502 17.8328 19.654 18.0876 20.5794 18.0876H21.7133C21.4526 18.5589 20.9574 19.0047 20.2275 19.425C19.6801 19.7307 19.0415 20.0237 18.2856 20.2785C17.8555 20.4313 17.6469 20.9026 17.8424 21.2975L18.2334 22.1127C18.4029 22.4566 18.8199 22.6222 19.1848 22.4948C20.5403 22.0235 21.6351 21.4631 22.4431 20.8007C23.3815 20.0492 23.955 19.1321 24.1765 18.0748H24.8934H31.8791H33.6125C34.603 18.0748 35.5023 17.9602 36.3104 17.7437C37.1184 17.5271 37.9135 17.1705 38.6824 16.6737L39.6469 16.0368C39.9206 16.7501 40.3376 17.2724 40.898 17.5908C41.4585 17.9093 42.1623 18.0748 43.0094 18.0748H43.2049H43.2179H50.2037H51.4158C51.6373 19.0684 52.0544 19.9345 52.68 20.6606C53.1883 21.2593 53.8139 21.7433 54.5568 22.1127C54.8435 22.2528 55.1824 22.2655 55.4691 22.1382L56.225 21.807C56.5117 21.6796 56.7203 21.4376 56.7985 21.1574C57.0982 20.0619 57.398 19.2849 57.6717 18.8391C57.9975 18.3296 58.4015 18.0748 58.8838 18.0748H59.1444H59.1575H66.1432H66.443C67.8375 18.0748 68.8672 17.7564 69.5188 17.1195C70.1705 16.4826 70.4963 15.591 70.4963 14.4446C70.4963 13.744 70.379 12.8779 70.1574 11.8461C70.0923 11.4258 69.6491 11.171 69.2321 11.2857ZM20.9183 15.6547C20.5403 15.6547 20.2796 15.6037 20.1102 15.4891C19.9538 15.3745 19.8626 15.1834 19.8626 14.9159C19.8626 14.4828 19.9408 14.1134 20.1102 13.8205C20.2796 13.5275 20.5273 13.3874 20.8401 13.3874C21.205 13.3874 21.4787 13.5784 21.6611 13.9606C21.8436 14.3427 21.9739 14.9032 22.0391 15.6292C21.7263 15.6547 21.3483 15.6547 20.9183 15.6547ZM53.7096 13.6294C53.9703 13.1454 54.3091 12.9033 54.7392 12.9033C54.9738 12.9033 55.1563 12.9798 55.2866 13.1199C55.417 13.26 55.4691 13.4765 55.4691 13.7568C55.4691 14.2535 55.2736 14.6484 54.8956 14.9796C54.5046 15.298 53.9963 15.4891 53.3577 15.5273C53.3447 14.7503 53.462 14.1134 53.7096 13.6294Z" fill="#0F1E27"/>
<path d="M66.2995 21.2724L66.7427 21.7055C67.0424 21.9985 67.5247 21.9985 67.8244 21.7055L68.2675 21.2724C68.5673 20.9794 68.5673 20.5081 68.2675 20.2152L67.8244 19.7821C67.5247 19.4891 67.0424 19.4891 66.7427 19.7821L66.2995 20.2152C65.9998 20.5081 65.9998 20.9794 66.2995 21.2724Z" fill="#0F1E27"/>
</g>
<defs>
<clipPath id="clip0">
<rect width="112" height="38" fill="white"/>
</clipPath>
</defs>
</svg>
